<svg width="817" height="191" viewBox="0 0 817 191" fill="none" xmlns="http://www.w3.org/2000/svg">
<path fill-rule="evenodd" clip-rule="evenodd" d="M672 191H16C7.16345 191 0 183.837 0 175V133C0 124.164 7.16345 117 16 117H672C674.426 116.993 676.82 117.543 679 118.608V189.391C676.821 190.456 674.426 191.007 672 191Z" fill="#323234"/>
<path d="M496.169 164.155L501.928 147.509H504.133L496.306 168.974C496.146 169.395 495.941 169.863 495.69 170.375C495.451 170.888 495.132 171.378 494.733 171.845C494.346 172.323 493.856 172.711 493.264 173.007C492.683 173.315 491.971 173.469 491.127 173.469C490.911 173.469 490.632 173.44 490.29 173.383C489.96 173.337 489.72 173.292 489.572 173.246L489.555 171.52C489.681 171.554 489.863 171.583 490.102 171.606C490.341 171.628 490.507 171.64 490.598 171.64C491.338 171.64 491.959 171.515 492.46 171.264C492.973 171.013 493.4 170.637 493.742 170.136C494.084 169.646 494.386 169.031 494.648 168.29L496.169 164.155ZM490.786 147.509L496.682 163.385L497.229 165.522L495.742 166.359L488.564 147.509H490.786ZM505.927 157.045V156.481C505.927 155.137 506.121 153.895 506.508 152.756C506.896 151.616 507.448 150.631 508.166 149.799C508.895 148.967 509.767 148.324 510.781 147.868C511.795 147.401 512.923 147.167 514.165 147.167C515.418 147.167 516.551 147.401 517.565 147.868C518.579 148.324 519.451 148.967 520.18 149.799C520.909 150.631 521.468 151.616 521.855 152.756C522.242 153.895 522.436 155.137 522.436 156.481V157.045C522.436 158.39 522.242 159.631 521.855 160.771C521.468 161.899 520.909 162.878 520.18 163.71C519.462 164.542 518.597 165.191 517.583 165.658C516.569 166.114 515.441 166.342 514.199 166.342C512.945 166.342 511.812 166.114 510.798 165.658C509.784 165.191 508.912 164.542 508.183 163.71C507.454 162.878 506.896 161.899 506.508 160.771C506.121 159.631 505.927 158.39 505.927 157.045ZM507.961 156.481V157.045C507.961 158.059 508.098 159.022 508.371 159.933C508.645 160.833 509.043 161.637 509.567 162.343C510.091 163.038 510.741 163.585 511.516 163.984C512.29 164.382 513.185 164.582 514.199 164.582C515.201 164.582 516.084 164.382 516.848 163.984C517.622 163.585 518.272 163.038 518.796 162.343C519.32 161.637 519.713 160.833 519.975 159.933C520.249 159.022 520.385 158.059 520.385 157.045V156.481C520.385 155.479 520.249 154.527 519.975 153.627C519.713 152.727 519.314 151.924 518.779 151.218C518.255 150.511 517.605 149.953 516.831 149.543C516.056 149.133 515.167 148.927 514.165 148.927C513.162 148.927 512.273 149.133 511.499 149.543C510.735 149.953 510.086 150.511 509.55 151.218C509.026 151.924 508.627 152.727 508.354 153.627C508.092 154.527 507.961 155.479 507.961 156.481ZM538.518 161.728V147.509H540.568V166H538.603L538.518 161.728ZM538.894 158.31L539.953 158.276C539.953 159.438 539.816 160.509 539.543 161.489C539.27 162.468 538.842 163.323 538.261 164.052C537.68 164.781 536.928 165.345 536.005 165.744C535.083 166.143 533.972 166.342 532.673 166.342C531.773 166.342 530.947 166.217 530.195 165.966C529.454 165.704 528.816 165.294 528.281 164.736C527.745 164.177 527.329 163.454 527.033 162.565C526.748 161.677 526.606 160.6 526.606 159.335V147.509H528.64V159.369C528.64 160.361 528.748 161.187 528.964 161.847C529.192 162.508 529.5 163.038 529.887 163.437C530.286 163.836 530.742 164.12 531.254 164.291C531.767 164.462 532.32 164.548 532.912 164.548C534.416 164.548 535.601 164.257 536.467 163.676C537.344 163.095 537.965 162.332 538.33 161.386C538.706 160.429 538.894 159.404 538.894 158.31ZM547.951 150.568V166H545.917V147.509H547.9L547.951 150.568ZM554.497 147.372L554.445 149.252C554.217 149.218 553.995 149.19 553.779 149.167C553.562 149.144 553.329 149.133 553.078 149.133C552.189 149.133 551.409 149.298 550.737 149.628C550.076 149.947 549.518 150.397 549.062 150.978C548.606 151.548 548.259 152.22 548.02 152.995C547.78 153.758 547.644 154.579 547.609 155.456L546.857 155.746C546.857 154.539 546.983 153.416 547.233 152.38C547.484 151.343 547.866 150.437 548.378 149.662C548.903 148.876 549.558 148.267 550.344 147.834C551.141 147.389 552.076 147.167 553.146 147.167C553.409 147.167 553.665 147.19 553.916 147.236C554.178 147.27 554.371 147.315 554.497 147.372ZM559.743 151.457V166H557.709V147.509H559.658L559.743 151.457ZM559.282 155.61L558.376 155.097C558.444 154.003 558.667 152.978 559.042 152.021C559.418 151.064 559.925 150.221 560.563 149.491C561.213 148.762 561.971 148.193 562.836 147.782C563.714 147.372 564.682 147.167 565.742 147.167C566.665 147.167 567.491 147.293 568.22 147.543C568.949 147.794 569.57 148.193 570.083 148.74C570.595 149.286 570.983 149.987 571.245 150.842C571.518 151.696 571.655 152.739 571.655 153.969V166H569.604V153.952C569.604 152.676 569.427 151.679 569.074 150.961C568.721 150.232 568.22 149.714 567.57 149.406C566.921 149.098 566.152 148.945 565.263 148.945C564.283 148.945 563.423 149.161 562.683 149.594C561.953 150.016 561.338 150.568 560.837 151.252C560.347 151.924 559.971 152.647 559.709 153.422C559.447 154.185 559.305 154.915 559.282 155.61ZM588.198 162.685V153.149C588.198 152.271 588.015 151.514 587.651 150.876C587.286 150.238 586.751 149.748 586.044 149.406C585.338 149.064 584.466 148.893 583.43 148.893C582.473 148.893 581.618 149.064 580.866 149.406C580.126 149.736 579.539 150.186 579.106 150.756C578.684 151.314 578.474 151.935 578.474 152.619L576.423 152.602C576.423 151.907 576.594 151.235 576.936 150.585C577.277 149.936 577.762 149.355 578.388 148.842C579.015 148.329 579.761 147.925 580.627 147.629C581.504 147.321 582.467 147.167 583.515 147.167C584.837 147.167 585.999 147.389 587.001 147.834C588.015 148.278 588.807 148.945 589.377 149.833C589.947 150.722 590.231 151.838 590.231 153.183V162.121C590.231 162.759 590.277 163.42 590.368 164.103C590.471 164.787 590.613 165.351 590.795 165.795V166H588.625C588.488 165.59 588.38 165.077 588.3 164.462C588.232 163.836 588.198 163.243 588.198 162.685ZM588.676 155.234L588.71 156.806H584.694C583.646 156.806 582.706 156.903 581.875 157.096C581.054 157.279 580.359 157.552 579.79 157.917C579.22 158.27 578.781 158.697 578.474 159.198C578.177 159.7 578.029 160.269 578.029 160.907C578.029 161.568 578.194 162.172 578.525 162.719C578.867 163.266 579.345 163.705 579.96 164.035C580.587 164.354 581.328 164.513 582.182 164.513C583.321 164.513 584.324 164.303 585.19 163.881C586.067 163.46 586.791 162.907 587.36 162.223C587.93 161.54 588.312 160.794 588.505 159.985L589.394 161.164C589.246 161.733 588.972 162.32 588.574 162.924C588.186 163.517 587.679 164.075 587.053 164.599C586.426 165.112 585.686 165.533 584.831 165.864C583.988 166.183 583.031 166.342 581.96 166.342C580.752 166.342 579.698 166.114 578.798 165.658C577.91 165.203 577.215 164.582 576.713 163.796C576.223 162.998 575.979 162.098 575.979 161.095C575.979 160.184 576.172 159.369 576.56 158.652C576.947 157.922 577.505 157.307 578.234 156.806C578.975 156.293 579.864 155.906 580.9 155.644C581.949 155.37 583.122 155.234 584.421 155.234H588.676ZM597.648 151.337V166H595.598V147.509H597.563L597.648 151.337ZM597.272 155.61L596.281 155.097C596.35 154.003 596.555 152.978 596.896 152.021C597.25 151.064 597.74 150.221 598.366 149.491C598.993 148.762 599.745 148.193 600.622 147.782C601.499 147.372 602.496 147.167 603.613 147.167C604.513 147.167 605.327 147.293 606.057 147.543C606.797 147.782 607.424 148.164 607.937 148.688C608.461 149.201 608.865 149.873 609.15 150.705C609.435 151.537 609.577 152.533 609.577 153.696V166H607.543V153.764C607.543 152.533 607.35 151.571 606.962 150.876C606.586 150.181 606.057 149.685 605.373 149.389C604.701 149.093 603.92 148.945 603.032 148.945C601.984 148.945 601.095 149.161 600.366 149.594C599.648 150.016 599.061 150.568 598.605 151.252C598.161 151.924 597.831 152.647 597.614 153.422C597.398 154.185 597.284 154.915 597.272 155.61ZM609.56 154.003L608.193 154.037C608.25 153.137 608.455 152.277 608.808 151.457C609.173 150.636 609.668 149.907 610.295 149.269C610.922 148.62 611.668 148.107 612.534 147.731C613.411 147.355 614.396 147.167 615.49 147.167C616.447 147.167 617.302 147.298 618.054 147.56C618.806 147.811 619.438 148.215 619.951 148.774C620.475 149.321 620.874 150.021 621.147 150.876C621.42 151.73 621.557 152.756 621.557 153.952V166H619.506V153.935C619.506 152.625 619.313 151.611 618.925 150.893C618.549 150.164 618.025 149.657 617.353 149.372C616.681 149.087 615.895 148.945 614.995 148.945C614.106 148.956 613.326 149.121 612.653 149.44C611.981 149.748 611.417 150.158 610.961 150.671C610.517 151.172 610.175 151.713 609.936 152.294C609.708 152.875 609.583 153.445 609.56 154.003ZM633.896 166.342C632.688 166.342 631.577 166.12 630.563 165.676C629.561 165.231 628.684 164.605 627.932 163.796C627.191 162.987 626.616 162.03 626.206 160.925C625.807 159.808 625.607 158.589 625.607 157.267V156.532C625.607 155.108 625.818 153.821 626.24 152.67C626.661 151.519 627.242 150.534 627.983 149.714C628.723 148.893 629.567 148.267 630.512 147.834C631.469 147.389 632.472 147.167 633.52 147.167C634.694 147.167 635.736 147.378 636.647 147.8C637.559 148.21 638.322 148.796 638.938 149.56C639.564 150.312 640.037 151.206 640.356 152.243C640.675 153.268 640.834 154.402 640.834 155.644V156.891H626.838V155.148H638.801V154.909C638.778 153.872 638.567 152.904 638.168 152.004C637.781 151.092 637.2 150.352 636.425 149.782C635.651 149.212 634.682 148.927 633.52 148.927C632.654 148.927 631.857 149.11 631.127 149.474C630.41 149.839 629.789 150.363 629.265 151.047C628.752 151.719 628.353 152.522 628.068 153.456C627.795 154.379 627.658 155.405 627.658 156.532V157.267C627.658 158.293 627.806 159.25 628.103 160.138C628.41 161.016 628.843 161.79 629.401 162.463C629.971 163.135 630.643 163.659 631.418 164.035C632.193 164.411 633.047 164.599 633.981 164.599C635.075 164.599 636.044 164.399 636.887 164.001C637.73 163.591 638.487 162.947 639.16 162.07L640.441 163.061C640.043 163.653 639.541 164.2 638.938 164.701C638.345 165.203 637.633 165.601 636.801 165.898C635.97 166.194 635.001 166.342 633.896 166.342ZM644.68 164.753C644.68 164.354 644.805 164.018 645.056 163.744C645.318 163.46 645.671 163.317 646.115 163.317C646.571 163.317 646.93 163.454 647.192 163.727C647.454 164.001 647.585 164.343 647.585 164.753C647.585 165.14 647.454 165.47 647.192 165.744C646.93 166.017 646.571 166.154 646.115 166.154C645.671 166.154 645.318 166.017 645.056 165.744C644.805 165.47 644.68 165.14 644.68 164.753ZM658.369 161.677L662.829 147.509H664.265L663.41 151.32L658.745 166H657.309L658.369 161.677ZM653.737 147.509L657.651 161.762L658.488 166H657.001L651.635 147.509H653.737ZM669.819 161.711L673.63 147.509H675.732L670.366 166H668.896L669.819 161.711ZM664.555 147.509L668.947 161.557L670.058 166H668.623L663.854 151.303L663.051 147.509H664.555ZM690.908 162.685V153.149C690.908 152.271 690.725 151.514 690.361 150.876C689.996 150.238 689.461 149.748 688.754 149.406C688.048 149.064 687.176 148.893 686.14 148.893C685.183 148.893 684.328 149.064 683.576 149.406C682.836 149.736 682.249 150.186 681.816 150.756C681.394 151.314 681.184 151.935 681.184 152.619L679.133 152.602C679.133 151.907 679.304 151.235 679.646 150.585C679.987 149.936 680.472 149.355 681.098 148.842C681.725 148.329 682.471 147.925 683.337 147.629C684.214 147.321 685.177 147.167 686.225 147.167C687.547 147.167 688.709 147.389 689.711 147.834C690.725 148.278 691.517 148.945 692.087 149.833C692.657 150.722 692.941 151.838 692.941 153.183V162.121C692.941 162.759 692.987 163.42 693.078 164.103C693.181 164.787 693.323 165.351 693.505 165.795V166H691.335C691.198 165.59 691.09 165.077 691.01 164.462C690.942 163.836 690.908 163.243 690.908 162.685ZM691.386 155.234L691.42 156.806H687.404C686.356 156.806 685.416 156.903 684.584 157.096C683.764 157.279 683.069 157.552 682.5 157.917C681.93 158.27 681.491 158.697 681.184 159.198C680.887 159.7 680.739 160.269 680.739 160.907C680.739 161.568 680.904 162.172 681.235 162.719C681.577 163.266 682.055 163.705 682.67 164.035C683.297 164.354 684.038 164.513 684.892 164.513C686.031 164.513 687.034 164.303 687.9 163.881C688.777 163.46 689.501 162.907 690.07 162.223C690.64 161.54 691.022 160.794 691.215 159.985L692.104 161.164C691.956 161.733 691.682 162.32 691.284 162.924C690.896 163.517 690.389 164.075 689.763 164.599C689.136 165.112 688.396 165.533 687.541 165.864C686.698 166.183 685.741 166.342 684.67 166.342C683.462 166.342 682.408 166.114 681.508 165.658C680.62 165.203 679.925 164.582 679.423 163.796C678.933 162.998 678.688 162.098 678.688 161.095C678.688 160.184 678.882 159.369 679.27 158.652C679.657 157.922 680.215 157.307 680.944 156.806C681.685 156.293 682.574 155.906 683.61 155.644C684.659 155.37 685.832 155.234 687.131 155.234H691.386ZM703.605 164.035L709.536 147.509H711.638L704.716 166H703.229L703.605 164.035ZM698.239 147.509L704.238 164.086L704.562 166H703.059L696.12 147.509H698.239ZM717.277 147.509V166H715.244V147.509H717.277ZM714.885 142.16C714.885 141.773 715.004 141.448 715.244 141.186C715.494 140.912 715.836 140.776 716.269 140.776C716.702 140.776 717.044 140.912 717.294 141.186C717.556 141.448 717.688 141.773 717.688 142.16C717.688 142.536 717.556 142.861 717.294 143.134C717.044 143.396 716.702 143.527 716.269 143.527C715.836 143.527 715.494 143.396 715.244 143.134C715.004 142.861 714.885 142.536 714.885 142.16ZM734.709 161.728V147.509H736.76V166H734.794L734.709 161.728ZM735.085 158.31L736.145 158.276C736.145 159.438 736.008 160.509 735.734 161.489C735.461 162.468 735.034 163.323 734.453 164.052C733.872 164.781 733.12 165.345 732.197 165.744C731.274 166.143 730.163 166.342 728.864 166.342C727.964 166.342 727.138 166.217 726.386 165.966C725.646 165.704 725.008 165.294 724.472 164.736C723.937 164.177 723.521 163.454 723.225 162.565C722.94 161.677 722.797 160.6 722.797 159.335V147.509H724.831V159.369C724.831 160.361 724.939 161.187 725.156 161.847C725.384 162.508 725.691 163.038 726.079 163.437C726.477 163.836 726.933 164.12 727.446 164.291C727.958 164.462 728.511 164.548 729.104 164.548C730.607 164.548 731.792 164.257 732.658 163.676C733.535 163.095 734.156 162.332 734.521 161.386C734.897 160.429 735.085 159.404 735.085 158.31ZM744.04 151.337V166H741.989V147.509H743.955L744.04 151.337ZM743.664 155.61L742.673 155.097C742.741 154.003 742.946 152.978 743.288 152.021C743.641 151.064 744.131 150.221 744.758 149.491C745.384 148.762 746.136 148.193 747.014 147.782C747.891 147.372 748.888 147.167 750.004 147.167C750.904 147.167 751.719 147.293 752.448 147.543C753.189 147.782 753.815 148.164 754.328 148.688C754.852 149.201 755.257 149.873 755.542 150.705C755.826 151.537 755.969 152.533 755.969 153.696V166H753.935V153.764C753.935 152.533 753.741 151.571 753.354 150.876C752.978 150.181 752.448 149.685 751.765 149.389C751.092 149.093 750.312 148.945 749.423 148.945C748.375 148.945 747.486 149.161 746.757 149.594C746.04 150.016 745.453 150.568 744.997 151.252C744.553 151.924 744.222 152.647 744.006 153.422C743.789 154.185 743.675 154.915 743.664 155.61ZM755.952 154.003L754.584 154.037C754.641 153.137 754.847 152.277 755.2 151.457C755.564 150.636 756.06 149.907 756.687 149.269C757.313 148.62 758.059 148.107 758.925 147.731C759.803 147.355 760.788 147.167 761.882 147.167C762.839 147.167 763.693 147.298 764.445 147.56C765.197 147.811 765.83 148.215 766.342 148.774C766.866 149.321 767.265 150.021 767.539 150.876C767.812 151.73 767.949 152.756 767.949 153.952V166H765.898V153.935C765.898 152.625 765.704 151.611 765.317 150.893C764.941 150.164 764.417 149.657 763.745 149.372C763.072 149.087 762.286 148.945 761.386 148.945C760.498 148.956 759.717 149.121 759.045 149.44C758.373 149.748 757.809 150.158 757.353 150.671C756.909 151.172 756.567 151.713 756.328 152.294C756.1 152.875 755.974 153.445 755.952 154.003ZM772.956 164.753C772.956 164.354 773.081 164.018 773.332 163.744C773.594 163.46 773.947 163.317 774.392 163.317C774.847 163.317 775.206 163.454 775.468 163.727C775.73 164.001 775.861 164.343 775.861 164.753C775.861 165.14 775.73 165.47 775.468 165.744C775.206 166.017 774.847 166.154 774.392 166.154C773.947 166.154 773.594 166.017 773.332 165.744C773.081 165.47 772.956 165.14 772.956 164.753ZM788.337 164.582C789.203 164.582 790.012 164.422 790.764 164.103C791.527 163.773 792.154 163.289 792.644 162.651C793.145 162.001 793.43 161.209 793.498 160.275H795.446C795.389 161.449 795.03 162.497 794.37 163.42C793.72 164.331 792.866 165.049 791.806 165.573C790.758 166.086 789.602 166.342 788.337 166.342C787.049 166.342 785.91 166.108 784.919 165.641C783.939 165.174 783.119 164.525 782.458 163.693C781.797 162.85 781.296 161.87 780.954 160.754C780.624 159.626 780.458 158.412 780.458 157.114V156.396C780.458 155.097 780.624 153.889 780.954 152.773C781.296 151.645 781.797 150.665 782.458 149.833C783.119 148.99 783.939 148.335 784.919 147.868C785.899 147.401 787.032 147.167 788.32 147.167C789.641 147.167 790.826 147.435 791.875 147.97C792.934 148.506 793.777 149.264 794.404 150.243C795.042 151.223 795.389 152.385 795.446 153.73H793.498C793.441 152.739 793.179 151.884 792.712 151.166C792.245 150.448 791.63 149.896 790.866 149.509C790.103 149.121 789.254 148.927 788.32 148.927C787.272 148.927 786.377 149.133 785.637 149.543C784.896 149.941 784.292 150.494 783.825 151.2C783.369 151.895 783.033 152.693 782.817 153.593C782.6 154.482 782.492 155.416 782.492 156.396V157.114C782.492 158.105 782.595 159.05 782.8 159.95C783.016 160.839 783.352 161.631 783.808 162.326C784.275 163.021 784.879 163.573 785.62 163.984C786.372 164.382 787.277 164.582 788.337 164.582ZM798.437 157.045V156.481C798.437 155.137 798.631 153.895 799.018 152.756C799.405 151.616 799.958 150.631 800.676 149.799C801.405 148.967 802.277 148.324 803.291 147.868C804.305 147.401 805.432 147.167 806.674 147.167C807.928 147.167 809.061 147.401 810.075 147.868C811.089 148.324 811.961 148.967 812.69 149.799C813.419 150.631 813.977 151.616 814.365 152.756C814.752 153.895 814.946 155.137 814.946 156.481V157.045C814.946 158.39 814.752 159.631 814.365 160.771C813.977 161.899 813.419 162.878 812.69 163.71C811.972 164.542 811.106 165.191 810.092 165.658C809.078 166.114 807.95 166.342 806.708 166.342C805.455 166.342 804.322 166.114 803.308 165.658C802.294 165.191 801.422 164.542 800.693 163.71C799.964 162.878 799.405 161.899 799.018 160.771C798.631 159.631 798.437 158.39 798.437 157.045ZM800.471 156.481V157.045C800.471 158.059 800.607 159.022 800.881 159.933C801.154 160.833 801.553 161.637 802.077 162.343C802.601 163.038 803.251 163.585 804.025 163.984C804.8 164.382 805.694 164.582 806.708 164.582C807.711 164.582 808.594 164.382 809.357 163.984C810.132 163.585 810.782 163.038 811.306 162.343C811.83 161.637 812.223 160.833 812.485 159.933C812.758 159.022 812.895 158.059 812.895 157.045V156.481C812.895 155.479 812.758 154.527 812.485 153.627C812.223 152.727 811.824 151.924 811.289 151.218C810.764 150.511 810.115 149.953 809.34 149.543C808.566 149.133 807.677 148.927 806.674 148.927C805.672 148.927 804.783 149.133 804.008 149.543C803.245 149.953 802.596 150.511 802.06 151.218C801.536 151.924 801.137 152.727 800.864 153.627C800.602 154.527 800.471 155.479 800.471 156.481Z" fill="#84E575"/>
<path d="M45.6426 148.802L39.7588 165H37.354L44.1289 147.227H45.6792L45.6426 148.802ZM50.5742 165L44.6782 148.802L44.6416 147.227H46.1919L52.9912 165H50.5742ZM50.269 158.421V160.349H40.2837V158.421H50.269ZM61.9512 148.802L56.0674 165H53.6626L60.4375 147.227H61.9878L61.9512 148.802ZM66.8828 165L60.9868 148.802L60.9502 147.227H62.5005L69.2998 165H66.8828ZM66.5776 158.421V160.349H56.5923V158.421H66.5776Z" fill="white"/>
<path d="M81.4531 26.7922H81.7314C82.9033 26.7922 83.9092 26.6506 84.749 26.3674C85.5986 26.0745 86.2969 25.6545 86.8438 25.1077C87.3906 24.5608 87.7959 23.8918 88.0596 23.1008C88.3232 22.3 88.4551 21.3918 88.4551 20.3762V16.3333C88.4551 15.5618 88.377 14.8831 88.2207 14.2971C88.0742 13.7112 87.8594 13.2278 87.5762 12.8469C87.3027 12.4563 86.9805 12.1633 86.6094 11.968C86.248 11.7727 85.8477 11.675 85.4082 11.675C84.9395 11.675 84.5244 11.7922 84.1631 12.0266C83.8018 12.2512 83.4941 12.5588 83.2402 12.9495C82.9961 13.3401 82.8057 13.7893 82.6689 14.2971C82.542 14.7952 82.4785 15.3176 82.4785 15.8645C82.4785 16.4114 82.542 16.9338 82.6689 17.4319C82.7959 17.9202 82.9863 18.3547 83.2402 18.7356C83.4941 19.1067 83.8115 19.4045 84.1924 19.6292C84.5732 19.844 85.0225 19.9514 85.54 19.9514C86.0381 19.9514 86.4824 19.8586 86.873 19.6731C87.2734 19.4778 87.6104 19.2239 87.8838 18.9114C88.167 18.5989 88.3818 18.2522 88.5283 17.8713C88.6846 17.4905 88.7627 17.1047 88.7627 16.7141L90.1543 17.4758C90.1543 18.1594 90.0078 18.8333 89.7148 19.4973C89.4219 20.1614 89.0117 20.7668 88.4844 21.3137C87.9668 21.8508 87.3662 22.2805 86.6826 22.6028C85.999 22.925 85.2666 23.0862 84.4854 23.0862C83.4893 23.0862 82.6055 22.9055 81.834 22.5442C81.0625 22.1731 80.4082 21.6653 79.8711 21.0208C79.3438 20.3665 78.9434 19.6047 78.6699 18.7356C78.3965 17.8665 78.2598 16.9241 78.2598 15.9084C78.2598 14.8733 78.4258 13.9016 78.7578 12.9934C79.0996 12.0852 79.583 11.2844 80.208 10.5911C80.8428 9.89771 81.5996 9.35571 82.4785 8.96509C83.3672 8.5647 84.3535 8.3645 85.4375 8.3645C86.5215 8.3645 87.5078 8.57446 88.3965 8.99438C89.2852 9.41431 90.0469 10.01 90.6816 10.7815C91.3164 11.5432 91.8047 12.4563 92.1465 13.5208C92.498 14.5852 92.6738 15.7668 92.6738 17.0657V18.5305C92.6738 19.9172 92.5225 21.2063 92.2197 22.3977C91.9268 23.5891 91.4824 24.6682 90.8867 25.635C90.3008 26.592 89.5684 27.4124 88.6895 28.0959C87.8203 28.7795 86.8096 29.302 85.6572 29.6633C84.5049 30.0247 83.2158 30.2053 81.79 30.2053H81.4531V26.7922ZM96.0283 27.9641C96.0283 27.3391 96.2432 26.8167 96.6729 26.3967C97.1123 25.9768 97.6934 25.7668 98.416 25.7668C99.1387 25.7668 99.7148 25.9768 100.145 26.3967C100.584 26.8167 100.804 27.3391 100.804 27.9641C100.804 28.5891 100.584 29.1116 100.145 29.5315C99.7148 29.9514 99.1387 30.1614 98.416 30.1614C97.6934 30.1614 97.1123 29.9514 96.6729 29.5315C96.2432 29.1116 96.0283 28.5891 96.0283 27.9641ZM96.0283 15.8792C96.0283 15.2542 96.2432 14.7317 96.6729 14.3118C97.1123 13.8918 97.6934 13.6819 98.416 13.6819C99.1387 13.6819 99.7148 13.8918 100.145 14.3118C100.584 14.7317 100.804 15.2542 100.804 15.8792C100.804 16.5042 100.584 17.0266 100.145 17.4465C99.7148 17.8665 99.1387 18.0764 98.416 18.0764C97.6934 18.0764 97.1123 17.8665 96.6729 17.4465C96.2432 17.0266 96.0283 16.5042 96.0283 15.8792ZM119.1 22.0315V25.342H103.733L103.528 22.7786L112.42 8.67212H115.774L112.142 14.7512L107.718 22.0315H119.1ZM116.683 8.67212V30.0002H112.464V8.67212H116.683ZM131.668 8.62817V30.0002H127.449V13.4915L122.381 15.1028V11.7776L131.214 8.62817H131.668Z" fill="white"/>
<path fill-rule="evenodd" clip-rule="evenodd" d="M307.559 150.829V148.029C307.56 145.328 306.12 142.832 303.781 141.482C301.442 140.131 298.56 140.131 296.222 141.482C293.883 142.833 292.443 145.329 292.444 148.03V150.829H289.959V157.488C289.959 163.034 294.454 167.529 300 167.529C305.545 167.529 310.041 163.034 310.041 157.488V150.829H307.559ZM300.794 160.229V162.701H299.207V160.231C297.811 159.836 296.92 158.471 297.12 157.034C297.32 155.597 298.549 154.527 300 154.527C301.45 154.527 302.679 155.597 302.879 157.034C303.078 158.471 302.188 159.836 300.792 160.231L300.794 160.229ZM305.973 150.829H294.028V148.029C294.028 144.731 296.702 142.057 300 142.057C303.298 142.057 305.972 144.731 305.972 148.029L305.973 150.829Z" fill="#80E770"/>
</svg>
